<svg width="150" height="48" viewBox="0 0 150 48" fill="none" xmlns="http://www.w3.org/2000/svg">
<rect x="8" y="8" width="32" height="32" rx="4" fill="#2D68FE"/>
<path d="M24 31.2L17.7646 20.4L30.2354 20.4L24 31.2Z" fill="white"/>
<path d="M62.1165 20.3608C62.0369 19.6165 61.7017 19.0369 61.1108 18.6222C60.5256 18.2074 59.7642 18 58.8267 18C58.1676 18 57.6023 18.0994 57.1307 18.2983C56.6591 18.4972 56.2983 18.767 56.0483 19.108C55.7983 19.4489 55.6705 19.8381 55.6648 20.2756C55.6648 20.6392 55.7472 20.9545 55.9119 21.2216C56.0824 21.4886 56.3125 21.7159 56.6023 21.9034C56.892 22.0852 57.2131 22.2386 57.5653 22.3636C57.9176 22.4886 58.2727 22.5938 58.6307 22.679L60.267 23.0881C60.9261 23.2415 61.5597 23.4489 62.1676 23.7102C62.7812 23.9716 63.3295 24.3011 63.8125 24.6989C64.3011 25.0966 64.6875 25.5767 64.9716 26.1392C65.2557 26.7017 65.3977 27.3608 65.3977 28.1165C65.3977 29.1392 65.1364 30.0398 64.6136 30.8182C64.0909 31.5909 63.3352 32.196 62.3466 32.6335C61.3636 33.0653 60.1733 33.2812 58.7756 33.2812C57.4176 33.2812 56.2386 33.071 55.2386 32.6506C54.2443 32.2301 53.4659 31.6165 52.9034 30.8097C52.3466 30.0028 52.0455 29.0199 52 27.8608H55.1108C55.1563 28.4688 55.3438 28.9744 55.6733 29.3778C56.0028 29.7813 56.4318 30.0824 56.9602 30.2812C57.4943 30.4801 58.0909 30.5795 58.75 30.5795C59.4375 30.5795 60.0398 30.4773 60.5568 30.2727C61.0795 30.0625 61.4886 29.7727 61.7841 29.4034C62.0795 29.0284 62.2301 28.5909 62.2358 28.0909C62.2301 27.6364 62.0966 27.2614 61.8352 26.9659C61.5739 26.6648 61.2074 26.4148 60.7358 26.2159C60.2699 26.0114 59.7244 25.8295 59.0994 25.6705L57.1136 25.1591C55.6761 24.7898 54.5398 24.2301 53.7045 23.4801C52.875 22.7244 52.4602 21.7216 52.4602 20.4716C52.4602 19.4432 52.7386 18.5426 53.2955 17.7699C53.858 16.9972 54.6222 16.3977 55.5881 15.9716C56.554 15.5398 57.6477 15.3239 58.8693 15.3239C60.108 15.3239 61.1932 15.5398 62.125 15.9716C63.0625 16.3977 63.7983 16.9915 64.3324 17.7528C64.8665 18.5085 65.142 19.3778 65.1591 20.3608H62.1165Z" fill="#324054"/>
<path d="M71.8473 33.2812C71.0178 33.2812 70.2706 33.1335 69.6058 32.8381C68.9467 32.5369 68.424 32.0938 68.0376 31.5085C67.657 30.9233 67.4666 30.2017 67.4666 29.3438C67.4666 28.6051 67.603 27.9943 67.8757 27.5114C68.1484 27.0284 68.5206 26.642 68.9922 26.3523C69.4638 26.0625 69.995 25.8438 70.5859 25.696C71.1825 25.5426 71.799 25.4318 72.4354 25.3636C73.2024 25.2841 73.8246 25.2131 74.3018 25.1506C74.7791 25.0824 75.1257 24.9801 75.3416 24.8438C75.5632 24.7017 75.674 24.483 75.674 24.1875V24.1364C75.674 23.4943 75.4837 22.9972 75.103 22.6449C74.7223 22.2926 74.174 22.1165 73.4581 22.1165C72.7024 22.1165 72.103 22.2813 71.6598 22.6108C71.2223 22.9403 70.9268 23.3295 70.7734 23.7784L67.8928 23.3693C68.12 22.5739 68.495 21.9091 69.0178 21.375C69.5405 20.8352 70.1797 20.4318 70.9354 20.1648C71.691 19.892 72.5263 19.7557 73.441 19.7557C74.0717 19.7557 74.6996 19.8295 75.3246 19.9773C75.9496 20.125 76.5206 20.3693 77.0376 20.7102C77.5547 21.0455 77.9695 21.5028 78.282 22.0824C78.6001 22.6619 78.7592 23.3864 78.7592 24.2557V33.017H75.7933V31.2188H75.691C75.5035 31.5824 75.2393 31.9233 74.8984 32.2415C74.5632 32.554 74.1399 32.8068 73.6285 33C73.1229 33.1875 72.5291 33.2812 71.8473 33.2812ZM72.6484 31.0142C73.2678 31.0142 73.8047 30.892 74.2592 30.6477C74.7138 30.3977 75.0632 30.0682 75.3075 29.6591C75.5575 29.25 75.6825 28.804 75.6825 28.321V26.7784C75.5859 26.858 75.4212 26.9318 75.1882 27C74.9609 27.0682 74.7053 27.1278 74.4212 27.179C74.1371 27.2301 73.8558 27.2756 73.5774 27.3153C73.299 27.3551 73.0575 27.3892 72.853 27.4176C72.3928 27.4801 71.9808 27.5824 71.6172 27.7244C71.2536 27.8665 70.9666 28.0653 70.7564 28.321C70.5462 28.571 70.441 28.8949 70.441 29.2926C70.441 29.8608 70.6484 30.2898 71.0632 30.5795C71.478 30.8693 72.0064 31.0142 72.6484 31.0142Z" fill="#324054"/>
<path d="M84.9467 15.5625V33.017H81.8615V15.5625H84.9467Z" fill="#324054"/>
<path d="M93.9148 33.2727C92.6023 33.2727 91.4688 33 90.5142 32.4545C89.5653 31.9034 88.8352 31.125 88.3239 30.1193C87.8125 29.108 87.5568 27.9176 87.5568 26.5483C87.5568 25.2017 87.8125 24.0199 88.3239 23.0028C88.8409 21.9801 89.5625 21.1847 90.4886 20.6165C91.4148 20.0426 92.5028 19.7557 93.7528 19.7557C94.5597 19.7557 95.321 19.8864 96.0369 20.1477C96.7585 20.4034 97.3949 20.8011 97.946 21.3409C98.5028 21.8807 98.9403 22.5682 99.2585 23.4034C99.5767 24.233 99.7358 25.2216 99.7358 26.3693V27.3153H89.0057V25.2358H96.7784C96.7727 24.6449 96.6449 24.1193 96.3949 23.6591C96.1449 23.1932 95.7955 22.8267 95.3466 22.5597C94.9034 22.2926 94.3864 22.1591 93.7955 22.1591C93.1648 22.1591 92.6108 22.3125 92.1335 22.6193C91.6563 22.9205 91.2841 23.3182 91.017 23.8125C90.7557 24.3011 90.6222 24.8381 90.6165 25.4233V27.2386C90.6165 28 90.7557 28.6534 91.0341 29.1989C91.3125 29.7386 91.7017 30.1534 92.2017 30.4432C92.7017 30.7273 93.2869 30.8693 93.9574 30.8693C94.4062 30.8693 94.8125 30.8068 95.1761 30.6818C95.5398 30.5511 95.8551 30.3608 96.1222 30.1108C96.3892 29.8608 96.5909 29.5511 96.7273 29.1818L99.608 29.5057C99.4261 30.267 99.0795 30.9318 98.5682 31.5C98.0625 32.0625 97.4148 32.5 96.625 32.8125C95.8352 33.1193 94.9318 33.2727 93.9148 33.2727Z" fill="#324054"/>
<path d="M112.692 23.3864L109.88 23.6932C109.8 23.4091 109.661 23.142 109.462 22.892C109.269 22.642 109.008 22.4403 108.678 22.2869C108.349 22.1335 107.945 22.0568 107.468 22.0568C106.826 22.0568 106.286 22.196 105.849 22.4744C105.417 22.7528 105.204 23.1136 105.21 23.5568C105.204 23.9375 105.343 24.2472 105.627 24.4858C105.917 24.7244 106.394 24.9205 107.059 25.0739L109.292 25.5511C110.531 25.8182 111.451 26.2415 112.053 26.821C112.661 27.4006 112.968 28.1591 112.974 29.0966C112.968 29.9205 112.727 30.6477 112.249 31.2784C111.778 31.9034 111.121 32.392 110.281 32.7443C109.44 33.0966 108.474 33.2727 107.383 33.2727C105.781 33.2727 104.491 32.9375 103.513 32.267C102.536 31.5909 101.954 30.6506 101.766 29.446L104.775 29.1562C104.911 29.7472 105.201 30.1932 105.644 30.4943C106.087 30.7955 106.664 30.946 107.374 30.946C108.107 30.946 108.695 30.7955 109.138 30.4943C109.587 30.1932 109.812 29.821 109.812 29.3778C109.812 29.0028 109.667 28.6932 109.377 28.4489C109.093 28.2045 108.65 28.017 108.048 27.8864L105.815 27.4176C104.559 27.1562 103.63 26.7159 103.028 26.0966C102.425 25.4716 102.127 24.6818 102.133 23.7273C102.127 22.9205 102.346 22.2216 102.789 21.6307C103.238 21.0341 103.86 20.5739 104.656 20.25C105.457 19.9205 106.38 19.7557 107.425 19.7557C108.96 19.7557 110.167 20.0824 111.048 20.7358C111.934 21.3892 112.482 22.2727 112.692 23.3864Z" fill="#324054"/>
<path d="M117.418 33.2045C116.901 33.2045 116.458 33.0227 116.089 32.6591C115.719 32.2955 115.538 31.8523 115.543 31.3295C115.538 30.8182 115.719 30.3807 116.089 30.017C116.458 29.6534 116.901 29.4716 117.418 29.4716C117.918 29.4716 118.353 29.6534 118.722 30.017C119.097 30.3807 119.288 30.8182 119.293 31.3295C119.288 31.6761 119.197 31.9915 119.021 32.2756C118.85 32.5597 118.623 32.7869 118.339 32.9574C118.06 33.1222 117.754 33.2045 117.418 33.2045Z" fill="#324054"/>
<path d="M122.479 33.017V19.9261H125.564V33.017H122.479ZM124.03 18.0682C123.541 18.0682 123.121 17.9063 122.768 17.5824C122.416 17.2528 122.24 16.858 122.24 16.3977C122.24 15.9318 122.416 15.5369 122.768 15.2131C123.121 14.8835 123.541 14.7188 124.03 14.7188C124.524 14.7188 124.945 14.8835 125.291 15.2131C125.643 15.5369 125.82 15.9318 125.82 16.3977C125.82 16.858 125.643 17.2528 125.291 17.5824C124.945 17.9063 124.524 18.0682 124.03 18.0682Z" fill="#324054"/>
<path d="M134.447 33.2727C133.168 33.2727 132.06 32.9915 131.123 32.429C130.185 31.8665 129.458 31.0795 128.941 30.0682C128.43 29.0568 128.174 27.875 128.174 26.5227C128.174 25.1705 128.43 23.9858 128.941 22.9688C129.458 21.9517 130.185 21.1619 131.123 20.5994C132.06 20.0369 133.168 19.7557 134.447 19.7557C135.725 19.7557 136.833 20.0369 137.771 20.5994C138.708 21.1619 139.433 21.9517 139.944 22.9688C140.461 23.9858 140.719 25.1705 140.719 26.5227C140.719 27.875 140.461 29.0568 139.944 30.0682C139.433 31.0795 138.708 31.8665 137.771 32.429C136.833 32.9915 135.725 33.2727 134.447 33.2727ZM134.464 30.8011C135.157 30.8011 135.737 30.6108 136.202 30.2301C136.668 29.8438 137.015 29.3267 137.242 28.679C137.475 28.0313 137.592 27.3097 137.592 26.5142C137.592 25.7131 137.475 24.9886 137.242 24.3409C137.015 23.6875 136.668 23.1676 136.202 22.7812C135.737 22.3949 135.157 22.2017 134.464 22.2017C133.754 22.2017 133.163 22.3949 132.691 22.7812C132.225 23.1676 131.876 23.6875 131.643 24.3409C131.415 24.9886 131.302 25.7131 131.302 26.5142C131.302 27.3097 131.415 28.0313 131.643 28.679C131.876 29.3267 132.225 29.8438 132.691 30.2301C133.163 30.6108 133.754 30.8011 134.464 30.8011Z" fill="#324054"/>
</svg>
